<svg style="object-fit:cover" id="my-svg" version="1" baseProfile="full" width="100%" height="100%" viewBox="0 0 1920 963" xmlns="http://www.w3.org/2000/svg"><rect width="1920" height="963" fill="#000"/><defs><linearGradient id="linear-gradient" x1="0" x2="1" y1="0" y2="1"><stop offset="0%" stop-color="#c81d1190"/><stop offset="100%" stop-color="#1c39bb90"/></linearGradient></defs><path transform="scale(1, 1)" style="transform-origin:center" d="M 0,963 V 0,663 C 165.17857142857144,625.3571428571429 330.3571428571429,587.7142857142857 496,652 C 661.6428571428571,716.2857142857143 827.75,882.5000000000001 988,848 C 1148.25,813.4999999999999 1302.642857142857,578.2857142857142 1457,514 C 1611.357142857143,449.7142857142858 1765.6785714285716,556.3571428571429 1920,663 C 1920,663 1920,963 1920,963 Z" stroke="none" stroke-width="0" fill="url(#linear-gradient)" class="transition-all duration-300 ease-in-out delay-150"/><defs><linearGradient id="linear-gradient" x1="0" x2="1" y1="0" y2="1"><stop offset="0%" stop-color="#c81d11ff"/><stop offset="100%" stop-color="#1c39bbff"/></linearGradient></defs><path transform="scale(1, 1)" style="transform-origin:center" d="M 0,963 V 0,994 C 126.03571428571433,989.3928571428571 252.07142857142867,984.7857142857142 396,1009 C 539.9285714285713,1033.2142857142858 701.7499999999998,1086.25 887,1071 C 1072.2500000000002,1055.75 1280.9285714285716,972.2142857142857 1457,948 C 1633.0714285714284,923.7857142857143 1776.5357142857142,958.8928571428571 1920,994 C 1920,994 1920,963 1920,963 Z" stroke="none" stroke-width="0" fill="url(#linear-gradient)" class="transition-all duration-300 ease-in-out delay-150"/></svg>