<svg style="object-fit:cover" id="my-svg" version="1" baseProfile="full" width="100%" height="100%" viewBox="0 0 1920 963" xmlns="http://www.w3.org/2000/svg"><rect width="1920" height="963" fill="#ffffff"/><defs><linearGradient id="linear-gradient" x1="0" x2="1" y1="0" y2="1"><stop offset="0%" stop-color="#00ffe590"/><stop offset="100%" stop-color="#d4aeff90"/></linearGradient></defs><path transform="scale(1, 1)" style="transform-origin:center" d="M 0,963 V 0,663 C 114.21428571428572,755.2142857142858 228.42857142857144,847.4285714285714 419,898 C 609.5714285714286,948.5714285714286 876.5,957.5000000000001 1035,889 C 1193.5,820.4999999999999 1243.5714285714287,674.5714285714286 1373,624 C 1502.4285714285713,573.4285714285714 1711.2142857142858,618.2142857142858 1920,663 C 1920,663 1920,963 1920,963 Z" stroke="none" stroke-width="0" fill="url(#linear-gradient)" class="transition-all duration-300 ease-in-out delay-150"/><defs><linearGradient id="linear-gradient" x1="0" x2="1" y1="0" y2="1"><stop offset="0%" stop-color="#00ffe5ff"/><stop offset="100%" stop-color="#d4aeffff"/></linearGradient></defs><path transform="scale(1, 1)" style="transform-origin:center" d="M 0,963 V 0,994 C 117.21428571428567,985.2142857142858 234.42857142857133,976.4285714285714 402,944 C 569.5714285714287,911.5714285714286 787.5000000000002,855.5000000000001 984,929 C 1180.4999999999998,1002.4999999999999 1355.5714285714284,1205.5714285714284 1508,1238 C 1660.4285714285716,1270.4285714285716 1790.2142857142858,1132.2142857142858 1920,994 C 1920,994 1920,963 1920,963 Z" stroke="none" stroke-width="0" fill="url(#linear-gradient)" class="transition-all duration-300 ease-in-out delay-150"/></svg>